<svg height="72" viewBox="0 0 89 72" width="89" xmlns="http://www.w3.org/2000/svg"><path d="m289.889 127.881c33.18 0 51.325-27.489 51.325-51.325 0-.781-.016-1.558-.052-2.331 3.522-2.547 6.584-5.724 8.999-9.341-3.232 1.436-6.711 2.404-10.36 2.84 3.725-2.233 6.585-5.767 7.933-9.979-3.486 2.067-7.345 3.569-11.454 4.379-3.292-3.506-7.98-5.699-13.167-5.699-9.964 0-18.042 8.078-18.042 18.037 0 1.416.159 2.792.467 4.113-14.991-.754-28.285-7.933-37.182-18.847-1.55 2.665-2.443 5.763-2.443 9.067 0 6.258 3.185 11.783 8.028 15.016-2.959-.092-5.739-.905-8.17-2.258-.004.076-.004.152-.004.231 0 8.737 6.219 16.031 14.472 17.684-1.515.413-3.109.635-4.755.635-1.163 0-2.293-.115-3.392-.325 2.297 7.166 8.956 12.382 16.853 12.529-6.176 4.839-13.953 7.722-22.405 7.722-1.455 0-2.891-.083-4.303-.25 7.984 5.116 17.463 8.102 27.652 8.102" fill="#4591c2" fill-rule="evenodd" transform="translate(-262 -56)"/></svg>