<?xml version="1.0" encoding="UTF-8"?>
<svg width="81px" height="81px" viewBox="0 0 81 81" version="1.1" xmlns="http://www.w3.org/2000/svg" xmlns:xlink="http://www.w3.org/1999/xlink">
    <!-- Generator: Sketch 60.1 (88133) - https://sketch.com -->
    <title>Semibold-M</title>
    <desc>Created with Sketch.</desc>
    <g id="Page-1" stroke="none" stroke-width="1" fill="none" fill-rule="evenodd">
        <g id="xmark" transform="translate(-2003.000000, -1050.000000)" fill="#000000" fill-rule="nonzero">
            <g id="Symbols" transform="translate(512.000000, 627.000000)">
                <g id="Semibold-M" transform="translate(1490.920000, 423.000000)">
                    <path d="M2.2578,69.70117 C-0.1348,72.09375 -0.1836,76.341797 2.3066,78.83203 C4.8457,81.32227 9.0938,81.27344 11.4375,78.92969 L40.3438,50.0234 L69.2012,78.88086 C71.6426,81.32227 75.8418,81.32227 78.332,78.83203 C80.8223,76.292969 80.8223,72.14258 78.3809,69.70117 L49.5234,40.8438 L78.3809,11.9375 C80.8223,9.4961 80.8711,5.2969 78.332,2.8066 C75.8418,0.3164 71.6426,0.3164 69.2012,2.7578 L40.3438,31.6152 L11.4375,2.7578 C9.0938,0.3652 4.7969,0.2676 2.3066,2.8066 C-0.1836,5.2969 -0.1348,9.5938 2.2578,11.9375 L31.1152,40.8438 L2.2578,69.70117 Z" id="Path"></path>
                </g>
            </g>
        </g>
    </g>
</svg>