<svg height="81" viewBox="0 0 81 81" width="81" xmlns="http://www.w3.org/2000/svg"><path d="m2.2578 69.70117c-2.3926 2.39258-2.4414 6.640627.0488 9.13086 2.5391 2.49024 6.7872 2.44141 9.1309.09766l28.9063-28.90629 28.8574 28.85746c2.4414 2.44141 6.6406 2.44141 9.1308-.04883 2.4903-2.539061 2.4903-6.68945.0489-9.13086l-28.8575-28.85737 28.8575-28.9063c2.4414-2.4414 2.4902-6.6406-.0489-9.1309-2.4902-2.4902-6.6894-2.4902-9.1308-.0488l-28.8574 28.8574-28.9063-28.8574c-2.3437-2.3926-6.6406-2.4902-9.1309.0488-2.4902 2.4903-2.4414 6.7872-.0488 9.1309l28.8574 28.9063z" transform="translate(-.08)"/></svg>