<?xml version="1.0" encoding="UTF-8"?>
<svg width="22px" height="19px" viewBox="0 0 22 19" version="1.1" xmlns="http://www.w3.org/2000/svg" xmlns:xlink="http://www.w3.org/1999/xlink">
    <title>arrow-right</title>
    <g id="arrow-right" stroke="none" stroke-width="1" fill="none" fill-rule="evenodd">
        <path d="M12.704993,18.6403252 C13.0823275,18.6403252 13.4219286,18.493584 13.7237962,18.2001016 L21.5471986,10.3892771 C21.8490662,10.0957947 22,9.7394232 22,9.32016262 C22,8.90090205 21.8490662,8.54872316 21.5471986,8.26362597 L13.7489518,0.46537924 C13.5896328,0.306060221 13.4219286,0.18866726 13.2458392,0.113200356 C13.0697497,0.0377334519 12.8894677,0 12.704993,0 C12.2941176,0 11.9545166,0.129970779 11.6861898,0.389912336 C11.417863,0.649853894 11.2836997,0.976877144 11.2836997,1.37098209 C11.2836997,1.58061237 11.3235294,1.77137594 11.4031889,1.94327277 C11.4828484,2.11516961 11.5897599,2.26819972 11.7239233,2.40236311 L17.2243445,7.88629145 L1.48418244,7.88629145 C1.03976623,7.88629145 0.681298437,8.01835853 0.408779062,8.28249269 C0.136259687,8.54662686 0,8.89251683 0,9.32016262 C0,9.74780841 0.136259687,10.0957947 0.408779062,10.3641215 C0.681298437,10.6324482 1.03976623,10.7666116 1.48418244,10.7666116 L17.2243445,10.7666116 L11.7239233,16.25054 C11.5897599,16.3763181 11.4828484,16.5272519 11.4031889,16.7033414 C11.3235294,16.8794308 11.2836997,17.0722907 11.2836997,17.281921 C11.2836997,17.6676407 11.417863,17.9904714 11.6861898,18.2504129 C11.9545166,18.5103545 12.2941176,18.6403252 12.704993,18.6403252 Z" id="􀄫" fill="#000000" fill-rule="nonzero"></path>
    </g>
</svg>