<?xml version="1.0" encoding="UTF-8"?>
<svg width="45px" height="46px" viewBox="0 0 45 46" version="1.1" xmlns="http://www.w3.org/2000/svg" xmlns:xlink="http://www.w3.org/1999/xlink">
    <title>ô€‡»</title>
    <g id="ðŸ–-Landing-Page" stroke="none" stroke-width="1" fill="none" fill-rule="evenodd">
        <g id="Artboard" transform="translate(-457.000000, -360.000000)" fill="#007EFF" fill-rule="nonzero">
            <path d="M479.910156,405.110895 C481.099609,405.104004 482.316406,404.478516 483.560547,403.234375 L486.513672,400.28125 C486.773438,400.021484 487.094727,399.891602 487.477539,399.891602 L491.640625,399.891602 C493.404297,399.891602 494.706543,399.471191 495.547363,398.630371 C496.388184,397.789551 496.808594,396.487305 496.808594,394.723633 L496.808594,390.560547 C496.808594,390.191406 496.938477,389.876953 497.198242,389.617188 L500.151367,386.623047 C501.40918,385.392578 502.034668,384.182617 502.027887,382.993164 C502.020996,381.803711 501.395508,380.586914 500.151367,379.342773 L497.198242,376.369141 C496.938477,376.109375 496.808594,375.794922 496.808594,375.425781 L496.808594,371.262695 C496.808594,369.499023 496.388184,368.193359 495.547363,367.345703 C494.706543,366.498047 493.404297,366.074219 491.640625,366.074219 L487.477539,366.074219 C487.094727,366.074219 486.773438,365.951172 486.513672,365.705078 L483.560547,362.731445 C482.316406,361.487305 481.099609,360.868652 479.910156,360.875432 C478.720703,360.882324 477.503906,361.507812 476.259766,362.751953 L473.286133,365.705078 C473.026367,365.951172 472.711914,366.074219 472.342773,366.074219 L468.179688,366.074219 C466.416016,366.074219 465.110352,366.494629 464.262695,367.335449 C463.415039,368.17627 462.991211,369.485352 462.991211,371.262695 L462.991211,375.425781 C462.991211,375.794922 462.868164,376.109375 462.62207,376.369141 L459.668945,379.342773 C458.411133,380.586914 457.785645,381.803711 457.792425,382.993164 C457.799316,384.182617 458.424805,385.392578 459.668945,386.623047 L462.62207,389.617188 C462.868164,389.876953 462.991211,390.191406 462.991211,390.560547 L462.991211,394.723633 C462.991211,396.487305 463.415039,397.789551 464.262695,398.630371 C465.110352,399.471191 466.416016,399.891602 468.179688,399.891602 L472.342773,399.891602 C472.711914,399.891602 473.026367,400.021484 473.286133,400.28125 L476.259766,403.234375 C477.503906,404.492188 478.720703,405.117676 479.910156,405.110895 Z M477.756836,392.508789 C477.401367,392.508789 477.07666,392.430176 476.782715,392.272949 C476.48877,392.115723 476.211914,391.866211 475.952148,391.524414 L471.15332,385.65918 C470.975586,385.454102 470.845703,385.23877 470.763672,385.013184 C470.681641,384.787598 470.640625,384.558594 470.640625,384.326172 C470.640625,383.861328 470.804688,383.461426 471.132813,383.126465 C471.460938,382.791504 471.857422,382.624023 472.322266,382.624023 C472.609375,382.624023 472.875977,382.682129 473.12207,382.79834 C473.368164,382.914551 473.607422,383.129883 473.839844,383.444336 L477.674805,388.345703 L485.816406,375.302734 C486.212891,374.673828 486.711914,374.359375 487.313477,374.359375 C487.764648,374.359375 488.171387,374.50293 488.533691,374.790039 C488.895996,375.077148 489.077148,375.459961 489.077148,375.938477 C489.077148,376.170898 489.025879,376.399902 488.92334,376.625488 C488.820801,376.851074 488.701172,377.066406 488.564453,377.271484 L479.479492,391.524414 C479.260742,391.852539 479.007813,392.098633 478.720703,392.262695 C478.433594,392.426758 478.112305,392.508789 477.756836,392.508789 Z" id="ô€‡»"></path>
        </g>
    </g>
</svg>