<?xml version="1.0" encoding="UTF-8"?>
<svg width="104px" height="51px" viewBox="0 0 104 51" version="1.1" xmlns="http://www.w3.org/2000/svg" xmlns:xlink="http://www.w3.org/1999/xlink">
    <title>Group</title>
    <defs>
        <linearGradient x1="26.0312807%" y1="22.3314523%" x2="93.1761048%" y2="78.9317381%" id="linearGradient-1">
            <stop stop-color="#F15A24" offset="21%"></stop>
            <stop stop-color="#FBB03B" offset="68.41%"></stop>
        </linearGradient>
        <linearGradient x1="73.9141395%" y1="77.6387811%" x2="6.76880664%" y2="21.0384064%" id="linearGradient-2">
            <stop stop-color="#ED1E79" offset="21%"></stop>
            <stop stop-color="#522785" offset="89.29%"></stop>
        </linearGradient>
    </defs>
    <g id="ðŸ–-Landing-Page" stroke="none" stroke-width="1" fill="none" fill-rule="evenodd">
        <g id="Dfinity" transform="translate(-14.000000, -40.000000)">
            <g id="Group" transform="translate(14.000000, 40.000000)">
                <path d="M78.203606,0 C72.433006,0 66.138406,3.07561 59.494006,9.13894 C56.346706,11.9949 53.592806,15.0705 51.582006,17.531 C51.582006,17.531 54.816706,21.1777 58.357506,25.0882 C60.280806,22.7155 63.034806,19.5081 66.225806,16.6083 C72.127006,11.204 75.973606,10.1056 78.203606,10.1056 C86.508606,10.1056 93.240606,16.9158 93.240606,25.3518 C93.240606,33.6999 86.508606,40.5101 78.203606,40.598 C77.809606,40.598 77.328606,40.5541 76.760606,40.4223 C79.164606,41.5207 81.787606,42.3116 84.235606,42.3116 C99.447606,42.3116 102.419406,32.0302 102.594406,31.2833 C103.031406,29.394 103.294406,27.4168 103.294406,25.3957 C103.250406,11.3797 92.016606,0 78.203606,0 Z" id="Path" fill="url(#linearGradient-1)" fill-rule="nonzero"></path>
                <path d="M25.091206,50.6597 C30.861306,50.6597 37.155906,47.5841 43.800306,41.5208 C46.947606,38.6648 49.701506,35.5892 51.712306,33.1287 C51.712306,33.1287 48.477506,29.482 44.936806,25.5715 C43.013406,27.9442 40.259506,31.1516 37.068506,34.0514 C31.167306,39.4118 27.276806,40.5541 25.091206,40.5541 C16.785706,40.5541 10.053906,33.7439 10.053906,25.3079 C10.053906,16.9598 16.785706,10.1496 25.091206,10.0617 C25.484606,10.0617 25.965406,10.1056 26.533706,10.2374 C24.129506,9.13901 21.506706,8.34814 19.058806,8.34814 C3.846706,8.34814 0.874196,18.6295 0.6994,19.3764 C0.2623,21.2657 0,23.2429 0,25.264 C0,39.28 11.234206,50.6597 25.091206,50.6597 Z" id="Path" fill="url(#linearGradient-2)" fill-rule="nonzero"></path>
                <path d="M36.655906,16.828 C34.994806,15.2462 26.864206,8.78745 19.083306,8.56776 C5.217186,8.22679 1.141086,18.0982 0.789653,19.3714 C3.445646,8.3019 13.346006,0.0438149 25.115706,0 C34.710706,0 44.406906,9.21291 51.570806,17.5275 C51.582606,17.5135 51.593906,17.4999 51.604806,17.4868 C51.604806,17.4868 54.839506,21.1336 58.380306,25.044 C58.380306,25.044 62.401806,29.7014 66.685706,33.7875 C68.346806,35.3693 76.433306,41.7402 84.214306,41.9599 C98.465306,42.3553 102.399406,31.9422 102.617406,31.1513 C99.995406,42.2674 90.072306,50.5715 78.269306,50.6155 C68.671406,50.6155 58.972006,41.3965 51.777706,33.0797 C51.763506,33.0967 51.749806,33.113 51.736806,33.1287 C51.736806,33.1287 48.502106,29.4819 44.961306,25.5715 C44.961306,25.5715 40.939806,20.9141 36.655906,16.828 Z" id="Shape" fill="#29ABE2"></path>
            </g>
        </g>
    </g>
</svg>